<svg width="1280" height="994" viewBox="0 0 1280 994" fill="none" xmlns="http://www.w3.org/2000/svg">
<path d="M1168.26 688.532L1212.5 637.703C1218.31 631.034 1225.53 625.737 1233.63 622.196C1277.74 602.92 1325.35 641.095 1316.13 688.342L1281.22 867.156C1264.3 953.862 1178.53 1008.99 1092.63 988.376L939.529 951.643C902.055 942.652 868.85 920.966 845.553 890.268L762.513 780.85C742.12 753.979 702.279 752.38 679.799 777.531C655.01 805.264 665.29 849.195 699.81 863.05L717.977 870.342C736.223 877.665 748.181 895.349 748.181 915.01C748.181 929.401 741.742 943.036 730.63 952.179L716.92 963.459C692.114 983.868 657.978 988.697 628.484 975.968L562.902 947.665C547.628 941.073 533.237 932.602 520.06 922.447L413.681 840.458C387.475 820.261 354.004 811.973 321.402 817.609L282.354 824.359C248.256 830.254 223.35 859.836 223.35 894.44C223.35 921.035 208.511 945.408 184.884 957.62L141.036 980.282C120.541 990.875 96.9305 993.782 74.4776 988.477C30.8881 978.179 0.0968533 939.265 0.0968533 894.475V866.717C0.0968533 845.589 5.18083 824.772 14.9195 806.023L34.3075 768.697C42.3452 753.222 55.5519 741.054 71.6313 734.308C95.084 724.469 111.904 703.354 116.252 678.295L118.191 667.116C122.578 641.83 116.58 615.844 101.555 595.038L85.2616 572.476C60.8972 538.738 53.0503 495.81 63.9038 455.634L71.4529 427.691C75.9116 411.187 73.81 393.597 65.5884 378.607L58.3401 365.393C51.1907 352.358 37.5057 344.256 22.639 344.256C-0.815063 344.256 -19.4201 324.493 -18.0056 301.081L-2.79838 49.3935C-1.17189 22.4742 21.1336 1.47583 48.1019 1.47583C66.7778 1.47583 83.9596 11.6852 92.8889 28.0882L101.061 43.0995C115.724 70.0366 113.643 102.996 95.7076 127.874L84.2569 143.758C80.3615 149.161 76.9609 154.904 74.0964 160.918L67.683 174.383C54.3152 202.447 53.0516 234.768 64.1878 263.791C82.4358 311.348 130.15 340.907 180.858 336.068L185.164 335.658C209.993 333.288 235.019 338.819 256.565 351.384C306.686 380.613 328.963 441.607 309.22 496.166L288.612 553.116C272.023 598.962 281.995 650.216 314.564 686.497C333.244 707.306 358.037 721.66 385.384 727.499L510.842 754.284C529.949 758.363 549.746 757.905 568.644 752.946C589.131 747.569 607.916 737.072 623.232 722.441L652.522 694.462C683.115 665.238 703.653 627.065 711.182 585.432L714.387 567.706C720.155 535.809 733.59 505.792 753.533 480.24L802.086 418.032C810.423 407.351 819.824 397.544 830.144 388.764L921.107 311.369L942.34 289.687C967.415 264.084 978.243 227.757 971.278 192.604L969.847 185.381C959.069 130.979 994.106 78.0426 1048.39 66.7071C1124.93 50.7258 1189.89 123.916 1164.93 198.013L1148.16 247.787C1138.38 276.831 1118.74 301.535 1092.64 317.613L899.21 436.806L854.926 470.963C815.533 501.347 792.459 548.283 792.459 598.032V604.169C792.459 649.107 812.915 691.603 848.04 719.634C855.851 725.868 864.274 731.293 873.18 735.825L894.283 746.565C942.519 771.115 998.647 775.067 1049.85 757.517L1082.26 746.409C1115.51 735.01 1145.17 715.048 1168.26 688.532Z" fill="url(#paint0_linear_95_156)"/>
<path d="M461.632 79.8117L469.461 72.8468C481.297 62.3157 495.61 54.9564 511.062 51.4562C582.979 35.1655 644.681 104.448 620.203 174.005L617.957 180.388C603.967 220.142 620.009 264.242 656.272 285.714L680.568 300.101C692.363 307.085 699.597 319.776 699.597 333.483C699.597 362.091 669.691 380.859 643.93 368.42L616.601 355.223C602.119 348.229 591.202 335.522 586.47 320.152L583.463 310.382C576.085 286.414 558.059 267.194 534.613 258.296L491.501 241.936C454.067 227.73 429.314 191.861 429.314 151.822C429.314 124.306 441.074 98.1015 461.632 79.8117Z" fill="url(#paint1_linear_95_156)"/>
<path d="M1168.26 688.532L1212.5 637.703C1218.31 631.034 1225.53 625.737 1233.63 622.196C1277.74 602.92 1325.35 641.095 1316.13 688.342L1281.22 867.156C1264.3 953.862 1178.53 1008.99 1092.63 988.376L939.529 951.643C902.055 942.652 868.85 920.966 845.553 890.268L762.513 780.85C742.12 753.979 702.279 752.38 679.799 777.531C655.01 805.264 665.29 849.195 699.81 863.05L717.977 870.342C736.223 877.665 748.181 895.349 748.181 915.01C748.181 929.401 741.742 943.036 730.63 952.179L716.92 963.459C692.114 983.868 657.978 988.697 628.484 975.968L562.902 947.665C547.628 941.073 533.237 932.602 520.06 922.447L413.681 840.458C387.475 820.261 354.004 811.973 321.402 817.609L282.354 824.359C248.256 830.254 223.35 859.836 223.35 894.44C223.35 921.035 208.511 945.408 184.884 957.62L141.036 980.282C120.541 990.875 96.9305 993.782 74.4776 988.477C30.8881 978.179 0.0968533 939.265 0.0968533 894.475V866.717C0.0968533 845.589 5.18083 824.772 14.9195 806.023L34.3075 768.697C42.3452 753.222 55.5519 741.054 71.6313 734.308C95.084 724.469 111.904 703.354 116.252 678.295L118.191 667.116C122.578 641.83 116.58 615.844 101.555 595.038L85.2616 572.476C60.8972 538.738 53.0503 495.81 63.9038 455.634L71.4529 427.691C75.9116 411.187 73.81 393.597 65.5884 378.607L58.3401 365.393C51.1907 352.358 37.5057 344.256 22.639 344.256C-0.815063 344.256 -19.4201 324.493 -18.0056 301.081L-2.79838 49.3935C-1.17189 22.4742 21.1336 1.47583 48.1019 1.47583C66.7778 1.47583 83.9596 11.6852 92.8889 28.0882L101.061 43.0995C115.724 70.0366 113.643 102.996 95.7076 127.874L84.2569 143.758C80.3615 149.161 76.9609 154.904 74.0964 160.918L67.683 174.383C54.3152 202.447 53.0516 234.768 64.1878 263.791C82.4358 311.348 130.15 340.907 180.858 336.068L185.164 335.658C209.993 333.288 235.019 338.819 256.565 351.384C306.686 380.613 328.963 441.607 309.22 496.166L288.612 553.116C272.023 598.962 281.995 650.216 314.564 686.497C333.244 707.306 358.037 721.66 385.384 727.499L510.842 754.284C529.949 758.363 549.746 757.905 568.644 752.946C589.131 747.569 607.916 737.072 623.232 722.441L652.522 694.462C683.115 665.238 703.653 627.065 711.182 585.432L714.387 567.706C720.155 535.809 733.59 505.792 753.533 480.24L802.086 418.032C810.423 407.351 819.824 397.544 830.144 388.764L921.107 311.369L942.34 289.687C967.415 264.084 978.243 227.757 971.278 192.604L969.847 185.381C959.069 130.979 994.106 78.0426 1048.39 66.7071C1124.93 50.7258 1189.89 123.916 1164.93 198.013L1148.16 247.787C1138.38 276.831 1118.74 301.535 1092.64 317.613L899.21 436.806L854.926 470.963C815.533 501.347 792.459 548.283 792.459 598.032V604.169C792.459 649.107 812.915 691.603 848.04 719.634C855.851 725.868 864.274 731.293 873.18 735.825L894.283 746.565C942.519 771.115 998.647 775.067 1049.85 757.517L1082.26 746.409C1115.51 735.01 1145.17 715.048 1168.26 688.532Z" stroke="#FF1139"/>
<path d="M461.632 79.8117L469.461 72.8468C481.297 62.3157 495.61 54.9564 511.062 51.4562C582.979 35.1655 644.681 104.448 620.203 174.005L617.957 180.388C603.967 220.142 620.009 264.242 656.272 285.714L680.568 300.101C692.363 307.085 699.597 319.776 699.597 333.483C699.597 362.091 669.691 380.859 643.93 368.42L616.601 355.223C602.119 348.229 591.202 335.522 586.47 320.152L583.463 310.382C576.085 286.414 558.059 267.194 534.613 258.296L491.501 241.936C454.067 227.73 429.314 191.861 429.314 151.822C429.314 124.306 441.074 98.1015 461.632 79.8117Z" stroke="#FF1139"/>
<defs>
<linearGradient id="paint0_linear_95_156" x1="361.265" y1="-112.825" x2="884.604" y2="1162.33" gradientUnits="userSpaceOnUse">
<stop stop-color="#F4EDDB"/>
<stop offset="0.577241" stop-color="#F9DDD7" stop-opacity="0.73"/>
<stop offset="1" stop-color="#FF1139" stop-opacity="0.53"/>
</linearGradient>
<linearGradient id="paint1_linear_95_156" x1="361.265" y1="-112.825" x2="884.604" y2="1162.33" gradientUnits="userSpaceOnUse">
<stop stop-color="#F4EDDB"/>
<stop offset="0.577241" stop-color="#F9DDD7" stop-opacity="0.73"/>
<stop offset="1" stop-color="#FF1139" stop-opacity="0.53"/>
</linearGradient>
</defs>
</svg>
