<svg width="431" height="782" viewBox="0 0 431 782" fill="none" xmlns="http://www.w3.org/2000/svg">
<path d="M221.518 158V140.36C221.518 135.963 222.014 131.514 222.968 127.221C228.405 102.752 248.664 83.8974 273.52 80.6554C286.203 79.0011 299.081 81.4714 310.251 87.7009L328.158 97.6871C348.414 108.984 359.388 131.791 355.575 154.67C351.507 179.077 331.616 197.749 307 200.267L256.794 205.401C240.887 207.028 226.06 214.442 215.174 226.155C207.212 234.723 201.654 245.311 199.154 256.737L194.513 277.946C189.03 303.003 163.664 318.345 138.926 311.568C130.582 309.282 121.756 309.462 113.512 312.085L76.014 324.017C58.3379 329.641 39.1937 321.597 30.8397 305.035C28.1787 299.76 26.7925 293.933 26.7925 288.024C26.7925 274.302 34.232 261.656 46.2274 254.992L50.0692 252.857C58.1976 248.342 67.5198 246.439 76.7676 247.409L117.496 251.682C146.359 254.709 175.007 244.263 195.146 223.366C212.065 205.812 221.518 182.381 221.518 158Z" fill="url(#paint0_linear_96_227)"/>
<path d="M218.31 407.215L215.888 413.096C207.681 433.028 191.268 448.447 170.862 455.394L169.841 455.741C151.14 462.107 130.708 461.054 112.76 452.798L96.0023 445.089C82.5893 438.919 66.9591 439.995 54.5174 447.944C38.1248 458.417 30.708 478.522 36.3719 497.131L36.9816 499.135C42.098 515.946 56.319 528.392 73.6599 531.234L100.402 535.618C116.883 538.32 131.615 547.46 141.355 561.027L149.081 571.789C157.8 583.933 159.163 599.879 152.632 613.327C145.421 628.173 147.885 645.903 158.87 658.22L165.547 665.707C177.409 679.006 194.92 685.826 212.653 684.053L237.524 681.566C254.84 679.834 271.452 673.817 285.86 664.057L293.146 659.121C301.01 653.794 309.396 649.284 318.176 645.661L371.903 623.488C382.767 619.004 392.431 612.038 400.119 603.148L420.987 579.02C427.003 572.064 428.536 562.292 424.939 553.829C417.613 536.592 394.286 533.934 383.27 549.081L343.247 604.112C337.25 612.358 329.33 619.016 320.176 623.506L303.064 631.901C278.559 643.922 249.701 643.08 225.938 629.649L223.92 628.508C210.294 620.806 199.4 609.056 192.749 594.887C180.383 568.542 184.5 537.158 202.973 514.669L234.227 482.548C244.965 471.511 258.598 463.726 273.56 460.087L279.599 458.618C292.64 455.446 304.325 448.188 312.95 437.905L319.303 430.33C328.581 419.268 331.849 404.362 328.05 390.433C324.367 376.928 314.485 365.978 301.428 360.933L277.243 351.589C268.608 348.253 259.098 347.94 250.262 350.701C233.162 356.045 221.518 371.882 221.518 389.798V390.998C221.518 396.561 220.428 402.07 218.31 407.215Z" fill="url(#paint1_linear_96_227)"/>
<path d="M221.518 158V140.36C221.518 135.963 222.014 131.514 222.968 127.221C228.405 102.752 248.664 83.8974 273.52 80.6554C286.203 79.0011 299.081 81.4714 310.251 87.7009L328.158 97.6871C348.414 108.984 359.388 131.791 355.575 154.67C351.507 179.077 331.616 197.749 307 200.267L256.794 205.401C240.887 207.028 226.06 214.442 215.174 226.155C207.212 234.723 201.654 245.311 199.154 256.737L194.513 277.946C189.03 303.003 163.664 318.345 138.926 311.568C130.582 309.282 121.756 309.462 113.512 312.085L76.014 324.017C58.3379 329.641 39.1937 321.597 30.8397 305.035C28.1787 299.76 26.7925 293.933 26.7925 288.024C26.7925 274.302 34.232 261.656 46.2274 254.992L50.0692 252.857C58.1976 248.342 67.5198 246.439 76.7676 247.409L117.496 251.682C146.359 254.709 175.007 244.263 195.146 223.366C212.065 205.812 221.518 182.381 221.518 158Z" stroke="#FF1139"/>
<path d="M218.31 407.215L215.888 413.096C207.681 433.028 191.268 448.447 170.862 455.394L169.841 455.741C151.14 462.107 130.708 461.054 112.76 452.798L96.0023 445.089C82.5893 438.919 66.9591 439.995 54.5174 447.944C38.1248 458.417 30.708 478.522 36.3719 497.131L36.9816 499.135C42.098 515.946 56.319 528.392 73.6599 531.234L100.402 535.618C116.883 538.32 131.615 547.46 141.355 561.027L149.081 571.789C157.8 583.933 159.163 599.879 152.632 613.327C145.421 628.173 147.885 645.903 158.87 658.22L165.547 665.707C177.409 679.006 194.92 685.826 212.653 684.053L237.524 681.566C254.84 679.834 271.452 673.817 285.86 664.057L293.146 659.121C301.01 653.794 309.396 649.284 318.176 645.661L371.903 623.488C382.767 619.004 392.431 612.038 400.119 603.148L420.987 579.02C427.003 572.064 428.536 562.292 424.939 553.829C417.613 536.592 394.286 533.934 383.27 549.081L343.247 604.112C337.25 612.358 329.33 619.016 320.176 623.506L303.064 631.901C278.559 643.922 249.701 643.08 225.938 629.649L223.92 628.508C210.294 620.806 199.4 609.056 192.749 594.887C180.383 568.542 184.5 537.158 202.973 514.669L234.227 482.548C244.965 471.511 258.598 463.726 273.56 460.087L279.599 458.618C292.64 455.446 304.325 448.188 312.95 437.905L319.303 430.33C328.581 419.268 331.849 404.362 328.05 390.433C324.367 376.928 314.485 365.978 301.428 360.933L277.243 351.589C268.608 348.253 259.098 347.94 250.262 350.701C233.162 356.045 221.518 371.882 221.518 389.798V390.998C221.518 396.561 220.428 402.07 218.31 407.215Z" stroke="#FF1139"/>
<defs>
<linearGradient id="paint0_linear_96_227" x1="222.843" y1="125.537" x2="222.843" y2="750.779" gradientUnits="userSpaceOnUse">
<stop stop-color="#FF1139" stop-opacity="0.53"/>
<stop offset="0.495" stop-color="#FFBABD" stop-opacity="0.54"/>
<stop offset="1" stop-color="#FFF8E6"/>
</linearGradient>
<linearGradient id="paint1_linear_96_227" x1="222.843" y1="125.537" x2="222.843" y2="750.779" gradientUnits="userSpaceOnUse">
<stop stop-color="#FF1139" stop-opacity="0.53"/>
<stop offset="0.495" stop-color="#FFBABD" stop-opacity="0.54"/>
<stop offset="1" stop-color="#FFF8E6"/>
</linearGradient>
</defs>
</svg>
