<svg width="390" height="782" viewBox="0 0 390 782" fill="none" xmlns="http://www.w3.org/2000/svg">
<g clip-path="url(#clip0_96_227)">
<path d="M221.518 161.535V140.36C221.518 135.963 222.014 131.514 222.968 127.221C228.405 102.752 248.665 83.8974 273.52 80.6554C286.203 79.0011 299.081 81.4714 310.251 87.701L328.158 97.6871C348.414 108.984 359.388 131.791 355.575 154.67C351.507 179.077 331.616 197.749 307 200.267L282.505 202.772C251.351 205.958 224.299 225.61 211.64 254.254L206.033 266.942C203.998 271.546 202.431 276.343 201.355 281.26L194.513 312.527C189.03 337.584 163.664 352.927 138.926 346.15C130.583 343.864 121.756 344.043 113.512 346.667L76.0141 358.598C58.3379 364.223 39.1938 356.179 30.8398 339.617C28.1788 334.341 26.7926 328.514 26.7926 322.606C26.7926 308.884 34.2321 296.237 46.2275 289.573L50.0693 287.439C58.1977 282.923 67.5199 281.021 76.7677 281.991L96.1447 284.023C137.135 288.323 176.95 268.69 198.494 233.554L203.501 225.388C215.282 206.173 221.518 184.074 221.518 161.535Z" fill="url(#paint0_linear_96_227)"/>
<path d="M218.31 471.118L215.888 476.999C207.681 496.931 191.268 512.35 170.862 519.297L169.841 519.644C151.14 526.01 130.708 524.957 112.76 516.701L96.0022 508.992C82.5892 502.822 66.959 503.898 54.5173 511.846C38.1247 522.32 30.7079 542.424 36.3718 561.034L36.9815 563.038C42.0979 579.849 56.3189 592.294 73.6598 595.137L100.402 599.521C116.883 602.223 131.615 611.363 141.355 624.929L149.081 635.691C157.8 647.836 159.163 663.782 152.631 677.229C145.42 692.075 147.884 709.806 158.87 722.123L165.547 729.609C177.409 742.909 194.92 749.729 212.652 747.956L237.524 745.469C254.84 743.737 271.452 737.72 285.86 727.96L293.146 723.024C301.01 717.697 309.396 713.187 318.176 709.563L371.902 687.391C382.767 682.907 392.431 675.941 400.119 667.051L420.987 642.922C427.003 635.967 428.536 626.195 424.939 617.732C417.613 600.495 394.286 597.836 383.27 612.983L343.247 668.015C337.249 676.261 329.33 682.919 320.176 687.409L303.064 695.804C278.559 707.825 249.7 706.982 225.938 693.552L223.92 692.411C210.293 684.709 199.4 672.959 192.749 658.79C180.383 632.445 184.5 601.061 202.973 578.572L234.226 546.45C244.965 535.414 258.598 527.629 273.56 523.99L279.599 522.521C292.64 519.349 304.325 512.091 312.95 501.808L319.303 494.233C328.581 483.171 331.849 468.265 328.05 454.336C324.367 440.831 314.485 429.881 301.428 424.836L277.243 415.492C268.608 412.156 259.098 411.843 250.262 414.604C233.162 419.948 221.518 435.785 221.518 453.701V454.9C221.518 460.464 220.428 465.973 218.31 471.118Z" fill="url(#paint1_linear_96_227)"/>
<path d="M221.518 161.535V140.36C221.518 135.963 222.014 131.514 222.968 127.221C228.405 102.752 248.665 83.8974 273.52 80.6554C286.203 79.0011 299.081 81.4714 310.251 87.701L328.158 97.6871C348.414 108.984 359.388 131.791 355.575 154.67C351.507 179.077 331.616 197.749 307 200.267L282.505 202.772C251.351 205.958 224.299 225.61 211.64 254.254L206.033 266.942C203.998 271.546 202.431 276.343 201.355 281.26L194.513 312.527C189.03 337.584 163.664 352.927 138.926 346.15C130.583 343.864 121.756 344.043 113.512 346.667L76.0141 358.598C58.3379 364.223 39.1938 356.179 30.8398 339.617C28.1788 334.341 26.7926 328.514 26.7926 322.606C26.7926 308.884 34.2321 296.237 46.2275 289.573L50.0693 287.439C58.1977 282.923 67.5199 281.021 76.7677 281.991L96.1447 284.023C137.135 288.323 176.95 268.69 198.494 233.554L203.501 225.388C215.282 206.173 221.518 184.074 221.518 161.535Z" stroke="#FF1139"/>
<path d="M218.31 471.118L215.888 476.999C207.681 496.931 191.268 512.35 170.862 519.297L169.841 519.644C151.14 526.01 130.708 524.957 112.76 516.701L96.0022 508.992C82.5892 502.822 66.959 503.898 54.5173 511.846C38.1247 522.32 30.7079 542.424 36.3718 561.034L36.9815 563.038C42.0979 579.849 56.3189 592.294 73.6598 595.137L100.402 599.521C116.883 602.223 131.615 611.363 141.355 624.929L149.081 635.691C157.8 647.836 159.163 663.782 152.631 677.229C145.42 692.075 147.884 709.806 158.87 722.123L165.547 729.609C177.409 742.909 194.92 749.729 212.652 747.956L237.524 745.469C254.84 743.737 271.452 737.72 285.86 727.96L293.146 723.024C301.01 717.697 309.396 713.187 318.176 709.563L371.902 687.391C382.767 682.907 392.431 675.941 400.119 667.051L420.987 642.922C427.003 635.967 428.536 626.195 424.939 617.732C417.613 600.495 394.286 597.836 383.27 612.983L343.247 668.015C337.249 676.261 329.33 682.919 320.176 687.409L303.064 695.804C278.559 707.825 249.7 706.982 225.938 693.552L223.92 692.411C210.293 684.709 199.4 672.959 192.749 658.79C180.383 632.445 184.5 601.061 202.973 578.572L234.226 546.45C244.965 535.414 258.598 527.629 273.56 523.99L279.599 522.521C292.64 519.349 304.325 512.091 312.95 501.808L319.303 494.233C328.581 483.171 331.849 468.265 328.05 454.336C324.367 440.831 314.485 429.881 301.428 424.836L277.243 415.492C268.608 412.156 259.098 411.843 250.262 414.604C233.162 419.948 221.518 435.785 221.518 453.701V454.9C221.518 460.464 220.428 465.973 218.31 471.118Z" stroke="#FF1139"/>
</g>
<defs>
<linearGradient id="paint0_linear_96_227" x1="222.843" y1="125.537" x2="222.843" y2="750.778" gradientUnits="userSpaceOnUse">
<stop stop-color="#FF1139" stop-opacity="0.53"/>
<stop offset="0.495" stop-color="#FFBABD" stop-opacity="0.54"/>
<stop offset="1" stop-color="#FFF8E6"/>
</linearGradient>
<linearGradient id="paint1_linear_96_227" x1="222.843" y1="125.537" x2="222.843" y2="750.778" gradientUnits="userSpaceOnUse">
<stop stop-color="#FF1139" stop-opacity="0.53"/>
<stop offset="0.495" stop-color="#FFBABD" stop-opacity="0.54"/>
<stop offset="1" stop-color="#FFF8E6"/>
</linearGradient>
<clipPath id="clip0_96_227">
<rect width="390" height="782" fill="white"/>
</clipPath>
</defs>
</svg>
