<svg width="1920" height="830" viewBox="0 0 1920 830" fill="none" xmlns="http://www.w3.org/2000/svg">
<g clip-path="url(#clip0_52_811)">
<path d="M195.649 0H173.933C165.902 0 157.896 0.893627 150.063 2.66438L129.46 7.32203C108.613 12.0345 90.9696 25.8279 81.3653 44.9206C68.6633 70.1715 72.0342 100.536 89.9652 122.386L91.763 124.577C94.9362 128.444 98.4842 131.987 102.355 135.155L177.548 196.696L266.13 266.158C273.876 272.232 278.4 281.528 278.4 291.371C278.4 309.067 264.055 323.412 246.359 323.412H223.287C211.824 323.412 200.646 319.838 191.31 313.187L148.55 282.725C142.092 278.125 134.935 274.596 127.354 272.274C89.8578 260.789 49.9306 280.655 36.4748 317.49L28.721 338.716C20.2133 362.005 27.2379 388.129 46.2787 404.011C55.5195 411.719 66.9038 416.404 78.8931 417.434L162.73 424.635C172.595 425.482 182.383 427.061 192.014 429.358L266.108 447.029C310.557 460.457 344.149 497.051 353.732 542.485L358.244 563.879C371.953 618.063 420.707 656.017 476.598 656.017H518.586C532.798 656.017 546.813 652.69 559.509 646.303L605.582 623.123C639.063 606.279 645.901 561.427 618.961 535.37C615.332 531.861 611.233 528.873 606.781 526.493L531.522 486.26C510.492 475.017 494.329 456.436 486.107 434.052L483.358 426.568C469.661 389.279 482.982 347.449 515.72 324.947L527.502 316.849C545.796 304.275 569.406 302.411 589.447 311.957C604.802 319.272 616.489 332.559 621.784 348.722L643.779 415.852C662.077 476.459 715.38 519.857 778.438 525.49L796.71 527.122C818.283 529.049 839.933 524.397 858.811 513.78L885.465 498.789C916.155 481.528 929.704 444.488 917.396 411.498C912.674 398.84 904.46 387.779 893.709 379.598L851.463 347.453L802.24 302.588C797.849 298.585 794.248 293.794 791.625 288.462C781.254 267.383 787.862 241.888 807.168 228.501L808.755 227.4C817.074 221.631 826.957 218.54 837.081 218.54H843.643C865.488 218.54 886.106 228.639 899.496 245.899L930.045 285.276C935.856 292.766 942.275 299.765 949.237 306.2L962.566 318.521C982.905 337.322 1008.69 349.177 1036.2 352.376L1086.62 358.24C1112.08 361.2 1136.59 347.623 1147.59 324.474C1155.92 306.947 1155.23 286.469 1145.75 269.539L1123.79 230.33C1101.3 190.178 1061.28 162.898 1015.68 156.637L981.507 151.945C962.589 149.347 943.397 149.473 924.515 152.316L844.639 164.347C834.78 165.832 824.823 166.577 814.853 166.577H739.458C726.199 166.577 712.988 164.983 700.109 161.828L661.438 152.354C650.006 149.554 639.868 142.948 632.69 133.621L624.175 122.559C617.61 114.03 616.339 102.557 620.876 92.7978C625.609 82.621 635.813 76.1121 647.036 76.1121H652.488C665.842 76.1121 678.182 83.2324 684.865 94.7933L688.091 100.374C692.594 108.164 699.173 114.55 707.093 118.82L712.739 121.863C723.122 127.461 734.733 130.391 746.528 130.391H750.223C765.517 130.391 780.534 126.305 793.72 118.556L808.937 109.613C822.407 101.696 832.552 89.1665 837.494 74.3442L840.959 63.9506C847.293 44.9537 841.322 24.017 825.921 11.2184C817.197 3.96878 806.212 0 794.869 0H589.629C568.06 0 546.634 3.48895 526.179 10.3317L484.856 24.1557C468.665 29.572 454.328 39.4395 443.487 52.6278L432.167 66.398C416.653 85.2708 413.474 111.421 424.015 133.461L424.655 134.798C428.806 143.478 435.083 150.968 442.902 156.573C471.979 177.418 474.952 219.558 449.09 244.278L444.255 248.899C435.589 257.182 424.728 262.805 412.962 265.101L387.719 270.027C368.61 273.756 348.804 271.042 331.402 262.31C309.838 251.49 293.664 232.289 286.662 209.201L283.335 198.232C280.063 187.44 278.4 176.226 278.4 164.949V130.391V82.7509C278.4 78.3322 278.046 73.9205 277.341 69.5582C270.867 29.468 236.258 0 195.649 0Z" stroke="#FF1139"/>
<path d="M1710.14 108.68L1742.94 145.204C1761.57 165.952 1790.39 174.283 1817.22 166.675L1834.5 161.774C1861.77 154.039 1890.37 168.778 1899.9 195.478L1902.53 202.837C1911.87 229.005 1896.49 257.501 1869.49 264.059C1843.32 270.417 1827.9 297.498 1835.78 323.253L1844.8 352.713C1849.55 368.205 1849.21 384.808 1843.83 400.091L1836.34 421.389C1820.46 466.54 1783.26 500.901 1736.99 513.152L1722.69 516.939C1690.83 525.375 1656.95 521.224 1628.07 505.349L1615.25 498.302C1582.15 480.109 1561.59 445.339 1561.59 407.573C1561.59 379.232 1573.21 352.13 1593.73 332.589L1628.05 299.919C1638.09 290.355 1650.28 283.324 1663.58 279.41L1707.24 266.567C1733.99 258.695 1747.92 229.263 1737.04 203.58C1728.03 182.31 1704.81 170.831 1682.44 176.581L1651.78 184.461C1622.41 192.011 1591.25 183.028 1570.4 160.999L1550.29 139.742C1544.49 133.614 1540.38 126.082 1538.38 117.887C1532.54 94.034 1545.4 69.5714 1568.36 60.8663L1592.69 51.6436C1623.14 40.0987 1657.57 48.6831 1679.03 73.1764L1710.14 108.68Z" stroke="#FF1139"/>
</g>
<defs>
<clipPath id="clip0_52_811">
<rect width="1920" height="830" fill="white"/>
</clipPath>
</defs>
</svg>
