<svg width="1459" height="1172" viewBox="0 0 1459 1172" fill="none" xmlns="http://www.w3.org/2000/svg">
<g clip-path="url(#clip0_106_288)">
<path d="M1199.69 739.959L1259.8 728.724C1279.64 725.015 1298.81 718.322 1316.66 708.872L1331.64 700.937C1337.14 698.025 1342.32 694.546 1347.09 690.556L1397.57 648.374C1417.1 632.058 1446.79 638.696 1457.5 661.775C1460.65 668.557 1461.77 676.106 1460.72 683.51L1457.6 705.554C1446.93 780.782 1367.02 824.694 1297.8 793.359L1289.76 789.72C1256.09 774.476 1217.28 775.523 1184.48 792.563L1173.53 798.251C1153.5 808.655 1136.16 823.562 1122.86 841.801L1066.84 918.655C1024.79 976.343 939.371 978.173 894.89 922.338L856.406 874.031C835.626 847.946 796.542 846.365 773.722 870.686C747.115 899.045 757.758 945.329 794.08 959.217L813.012 966.456C831.225 973.419 843.253 990.897 843.253 1010.39C843.253 1024.85 836.608 1038.5 825.231 1047.42L809.007 1060.14C783.68 1079.99 749.638 1084.69 719.875 1072.46L678.695 1055.52C643.701 1041.14 614.68 1015.22 596.447 982.065L551.806 900.898C500.036 806.767 365.395 805.03 311.213 897.794L308.108 903.109C297.779 920.794 292.335 940.907 292.335 961.388C292.335 1005.41 267.321 1045.61 227.826 1065.06L204.865 1076.36C183.98 1086.64 160.203 1089.47 137.492 1084.35C91.0091 1073.89 57.9859 1032.61 57.9859 984.963V963.062C57.9859 941.442 63.4088 920.168 73.7583 901.187L93.6104 864.777C102.235 848.958 116.109 836.644 132.839 829.957L134.125 829.443C158.059 819.877 175.393 798.676 180.011 773.318L180.484 770.723C185.713 742.007 172.842 713.016 148.035 697.636C123.246 682.267 110.374 653.305 115.577 624.606L131.706 535.639C137.018 506.339 127.68 476.293 106.697 455.166C103.131 451.576 99.2729 448.289 95.162 445.34L90.879 442.267C69.3151 426.796 52.1059 406.025 40.9139 381.961L25.2841 348.354C17.5183 331.656 12.0958 313.966 9.17041 295.785L7.78562 287.179C2.67087 255.391 5.30597 222.839 15.467 192.288L32.499 141.078C34.6693 134.552 35.611 127.681 35.2763 120.812L34.912 113.336C32.5905 65.6981 89.7276 39.754 124.067 72.8541L129.535 78.1249C136.339 84.6835 140.183 93.7276 140.183 103.178C140.183 114.885 134.296 125.808 124.517 132.244L85.6939 157.798C50.179 181.174 29.5345 221.471 31.3104 263.951L33.0851 306.401C34.7706 346.718 56.4778 383.531 90.9425 404.52C97.8561 408.731 105.175 412.235 112.79 414.982L118.931 417.196C144.448 426.399 171.672 429.896 198.687 427.44L261.933 421.69C281.741 419.89 301.634 424.092 319.021 433.752L346.665 449.11C384.532 470.147 395.132 519.762 369.169 554.437C344.264 587.699 352.872 635.115 387.88 657.5L432.027 685.729C443.239 692.898 455.564 698.155 468.499 701.284L557.466 722.809C600.45 733.208 645.806 726.031 683.478 702.867L684.34 702.337C690.598 698.489 696.57 694.192 702.207 689.481C729.59 666.597 748.054 634.813 754.37 599.69L757.393 582.875C764.29 544.516 783.672 509.513 812.524 483.312C832.735 464.957 856.924 451.534 883.193 444.096L928.848 431.169L939.345 427.57C993.4 409.038 1036.24 367.162 1056.01 313.545L1068.97 278.375C1073.44 266.235 1074.24 253.044 1071.25 240.454C1062.65 204.197 1085.87 168.046 1122.41 160.776L1173.82 150.55C1236.43 138.096 1283.49 206.67 1249.36 260.61C1240.97 273.874 1228.5 284.061 1213.83 289.646L1177.61 303.439C1129.96 321.583 1091.66 358.203 1071.4 404.99L1060.25 430.736C1053.16 447.108 1043.92 462.458 1032.76 476.377L1015.25 498.209C1001.76 515.029 991.953 534.49 986.453 555.335L981.896 572.606C968.868 621.986 986.628 674.37 1027 705.645C1041.86 717.157 1059.09 725.233 1077.45 729.291L1119.77 738.647C1146.05 744.457 1173.23 744.903 1199.69 739.959Z" fill="url(#paint0_linear_106_288)"/>
<path d="M530.19 300.942L506.942 298.957C465.83 295.446 434.247 260.984 434.247 219.722C434.247 196.437 444.489 174.296 462.253 159.24C482.863 141.772 510.953 136.008 536.777 143.95L543.016 145.868C577.059 156.337 601.889 185.672 606.589 220.978L612.076 262.195C615.988 291.588 638.34 315.141 667.488 320.587L686.595 324.156C709.961 328.521 726.343 349.708 724.688 373.421L723.518 390.174C721.269 422.388 682.854 437.809 658.955 416.092C656.431 413.798 654.222 411.181 652.385 408.308L618.78 355.756C605.811 335.474 587.052 319.552 564.931 310.052L562.649 309.072C552.334 304.642 541.375 301.898 530.19 300.942Z" fill="url(#paint1_linear_106_288)"/>
<path d="M1199.69 739.959L1259.8 728.724C1279.64 725.015 1298.81 718.322 1316.66 708.872L1331.64 700.937C1337.14 698.025 1342.32 694.546 1347.09 690.556L1397.57 648.374C1417.1 632.058 1446.79 638.696 1457.5 661.775C1460.65 668.557 1461.77 676.106 1460.72 683.51L1457.6 705.554C1446.93 780.782 1367.02 824.694 1297.8 793.359L1289.76 789.72C1256.09 774.476 1217.28 775.523 1184.48 792.563L1173.53 798.251C1153.5 808.655 1136.16 823.562 1122.86 841.801L1066.84 918.655C1024.79 976.343 939.371 978.173 894.89 922.338L856.406 874.031C835.626 847.946 796.542 846.365 773.722 870.686C747.115 899.045 757.758 945.329 794.08 959.217L813.012 966.456C831.225 973.419 843.253 990.897 843.253 1010.39C843.253 1024.85 836.608 1038.5 825.231 1047.42L809.007 1060.14C783.68 1079.99 749.638 1084.69 719.875 1072.46L678.695 1055.52C643.701 1041.14 614.68 1015.22 596.447 982.065L551.806 900.898C500.036 806.767 365.395 805.03 311.213 897.794L308.108 903.109C297.779 920.794 292.335 940.907 292.335 961.388C292.335 1005.41 267.321 1045.61 227.826 1065.06L204.865 1076.36C183.98 1086.64 160.203 1089.47 137.492 1084.35C91.0091 1073.89 57.9859 1032.61 57.9859 984.963V963.062C57.9859 941.442 63.4088 920.168 73.7583 901.187L93.6104 864.777C102.235 848.958 116.109 836.644 132.839 829.957L134.125 829.443C158.059 819.877 175.393 798.676 180.011 773.318L180.484 770.723C185.713 742.007 172.842 713.016 148.035 697.636C123.246 682.267 110.374 653.305 115.577 624.606L131.706 535.639C137.018 506.339 127.68 476.293 106.697 455.166C103.131 451.576 99.2729 448.289 95.162 445.34L90.879 442.267C69.3151 426.796 52.1059 406.025 40.9139 381.961L25.2841 348.354C17.5183 331.656 12.0958 313.966 9.17041 295.785L7.78562 287.179C2.67087 255.391 5.30597 222.839 15.467 192.288L32.499 141.078C34.6693 134.552 35.611 127.681 35.2763 120.812L34.912 113.336C32.5905 65.6981 89.7276 39.754 124.067 72.8541L129.535 78.1249C136.339 84.6835 140.183 93.7276 140.183 103.178C140.183 114.885 134.296 125.808 124.517 132.244L85.6939 157.798C50.179 181.174 29.5345 221.471 31.3104 263.951L33.0851 306.401C34.7706 346.718 56.4778 383.531 90.9425 404.52C97.8561 408.731 105.175 412.235 112.79 414.982L118.931 417.196C144.448 426.399 171.672 429.896 198.687 427.44L261.933 421.69C281.741 419.89 301.634 424.092 319.021 433.752L346.665 449.11C384.532 470.147 395.132 519.762 369.169 554.437C344.264 587.699 352.872 635.115 387.88 657.5L432.027 685.729C443.239 692.898 455.564 698.155 468.499 701.284L557.466 722.809C600.45 733.208 645.806 726.031 683.478 702.867L684.34 702.337C690.598 698.489 696.57 694.192 702.207 689.481C729.59 666.597 748.054 634.813 754.37 599.69L757.393 582.875C764.29 544.516 783.672 509.513 812.524 483.312C832.735 464.957 856.924 451.534 883.193 444.096L928.848 431.169L939.345 427.57C993.4 409.038 1036.24 367.162 1056.01 313.545L1068.97 278.375C1073.44 266.235 1074.24 253.044 1071.25 240.454C1062.65 204.197 1085.87 168.046 1122.41 160.776L1173.82 150.55C1236.43 138.096 1283.49 206.67 1249.36 260.61C1240.97 273.874 1228.5 284.061 1213.83 289.646L1177.61 303.439C1129.96 321.583 1091.66 358.203 1071.4 404.99L1060.25 430.736C1053.16 447.108 1043.92 462.458 1032.76 476.377L1015.25 498.209C1001.76 515.029 991.953 534.49 986.453 555.335L981.896 572.606C968.868 621.986 986.628 674.37 1027 705.645C1041.86 717.157 1059.09 725.233 1077.45 729.291L1119.77 738.647C1146.05 744.457 1173.23 744.903 1199.69 739.959Z" stroke="#FF1139"/>
<path d="M530.19 300.942L506.942 298.957C465.83 295.446 434.247 260.984 434.247 219.722C434.247 196.437 444.489 174.296 462.253 159.24C482.863 141.772 510.953 136.008 536.777 143.95L543.016 145.868C577.059 156.337 601.889 185.672 606.589 220.978L612.076 262.195C615.988 291.588 638.34 315.141 667.488 320.587L686.595 324.156C709.961 328.521 726.343 349.708 724.688 373.421L723.518 390.174C721.269 422.388 682.854 437.809 658.955 416.092C656.431 413.798 654.222 411.181 652.385 408.308L618.78 355.756C605.811 335.474 587.052 319.552 564.931 310.052L562.649 309.072C552.334 304.642 541.375 301.898 530.19 300.942Z" stroke="#FF1139"/>
</g>
<defs>
<linearGradient id="paint0_linear_106_288" x1="437.106" y1="-25.912" x2="942.399" y2="1266.47" gradientUnits="userSpaceOnUse">
<stop stop-color="#F4EDDB"/>
<stop offset="0.635" stop-color="#FFBABD"/>
<stop offset="1" stop-color="#FF1139" stop-opacity="0.53"/>
</linearGradient>
<linearGradient id="paint1_linear_106_288" x1="437.106" y1="-25.912" x2="942.399" y2="1266.47" gradientUnits="userSpaceOnUse">
<stop stop-color="#F4EDDB"/>
<stop offset="0.635" stop-color="#FFBABD"/>
<stop offset="1" stop-color="#FF1139" stop-opacity="0.53"/>
</linearGradient>
<clipPath id="clip0_106_288">
<rect width="1459" height="1172" fill="white"/>
</clipPath>
</defs>
</svg>
