<svg width="390" height="782" viewBox="0 0 390 782" fill="none" xmlns="http://www.w3.org/2000/svg">
<g clip-path="url(#clip0_96_227)">
<path d="M221.518 205.669V187.789C221.518 183.391 222.014 178.943 222.968 174.65C228.405 150.181 248.665 131.326 273.52 128.084C286.203 126.43 299.081 128.9 310.251 135.13L328.158 145.116C348.414 156.413 359.388 179.22 355.575 202.098C351.507 226.506 331.616 245.178 307 247.695L258.543 252.651C241.554 254.389 225.674 262.672 214.389 275.491C206.975 283.913 201.714 294.21 199.316 305.172L193.975 329.581C188.784 353.3 164.772 367.824 141.355 361.409C131.542 358.72 121.089 359.651 111.905 364.029L86.3248 376.226C64.2885 386.733 37.9265 375.954 29.3738 353.088C27.6728 348.54 26.7925 343.7 26.7925 338.845C26.7925 324.105 34.7836 310.524 47.6682 303.366L50.0692 302.032C58.1977 297.517 67.5198 295.614 76.7676 296.584L115.998 300.7C145.752 303.821 175.25 292.826 195.702 270.992C212.289 253.285 221.518 229.931 221.518 205.669Z" fill="url(#paint0_linear_96_227)"/>
<path d="M218.31 471.118L215.888 476.999C207.681 496.931 191.268 512.35 170.862 519.297L169.841 519.644C151.14 526.01 130.708 524.957 112.76 516.701L96.0023 508.992C82.5893 502.822 66.959 503.898 54.5174 511.846C38.1247 522.32 30.708 542.424 36.3718 561.034L36.9816 563.038C42.098 579.849 56.3189 592.294 73.6598 595.137L100.402 599.521C116.883 602.223 131.615 611.363 141.355 624.929L149.081 635.691C157.8 647.836 159.163 663.782 152.631 677.229C145.421 692.076 147.885 709.806 158.87 722.123L165.547 729.609C177.409 742.909 194.92 749.729 212.653 747.956L237.524 745.469C254.84 743.737 271.452 737.72 285.86 727.96L293.146 723.024C301.01 717.697 309.396 713.187 318.176 709.564L371.903 687.391C382.767 682.907 392.431 675.941 400.119 667.051L420.987 642.922C427.003 635.967 428.536 626.195 424.939 617.732C417.613 600.495 394.286 597.836 383.27 612.983L343.247 668.015C337.25 676.261 329.33 682.919 320.176 687.409L303.064 695.804C278.559 707.825 249.701 706.983 225.938 693.552L223.92 692.411C210.293 684.709 199.4 672.959 192.749 658.79C180.383 632.445 184.5 601.061 202.973 578.572L234.227 546.45C244.965 535.414 258.598 527.629 273.56 523.99L279.599 522.521C292.64 519.349 304.325 512.091 312.95 501.808L319.303 494.233C328.581 483.171 331.849 468.265 328.05 454.336C324.367 440.831 314.485 429.881 301.428 424.836L277.243 415.492C268.608 412.156 259.098 411.843 250.262 414.604C233.162 419.948 221.518 435.785 221.518 453.701V454.9C221.518 460.464 220.428 465.973 218.31 471.118Z" fill="url(#paint1_linear_96_227)"/>
<path d="M221.518 205.669V187.789C221.518 183.391 222.014 178.943 222.968 174.65C228.405 150.181 248.665 131.326 273.52 128.084C286.203 126.43 299.081 128.9 310.251 135.13L328.158 145.116C348.414 156.413 359.388 179.22 355.575 202.098C351.507 226.506 331.616 245.178 307 247.695L258.543 252.651C241.554 254.389 225.674 262.672 214.389 275.491C206.975 283.913 201.714 294.21 199.316 305.172L193.975 329.581C188.784 353.3 164.772 367.824 141.355 361.409C131.542 358.72 121.089 359.651 111.905 364.029L86.3248 376.226C64.2885 386.733 37.9265 375.954 29.3738 353.088C27.6728 348.54 26.7925 343.7 26.7925 338.845C26.7925 324.105 34.7836 310.524 47.6682 303.366L50.0692 302.032C58.1977 297.517 67.5198 295.614 76.7676 296.584L115.998 300.7C145.752 303.821 175.25 292.826 195.702 270.992C212.289 253.285 221.518 229.931 221.518 205.669Z" stroke="#FF1139"/>
<path d="M218.31 471.118L215.888 476.999C207.681 496.931 191.268 512.35 170.862 519.297L169.841 519.644C151.14 526.01 130.708 524.957 112.76 516.701L96.0023 508.992C82.5893 502.822 66.959 503.898 54.5174 511.846C38.1247 522.32 30.708 542.424 36.3718 561.034L36.9816 563.038C42.098 579.849 56.3189 592.294 73.6598 595.137L100.402 599.521C116.883 602.223 131.615 611.363 141.355 624.929L149.081 635.691C157.8 647.836 159.163 663.782 152.631 677.229C145.421 692.076 147.885 709.806 158.87 722.123L165.547 729.609C177.409 742.909 194.92 749.729 212.653 747.956L237.524 745.469C254.84 743.737 271.452 737.72 285.86 727.96L293.146 723.024C301.01 717.697 309.396 713.187 318.176 709.564L371.903 687.391C382.767 682.907 392.431 675.941 400.119 667.051L420.987 642.922C427.003 635.967 428.536 626.195 424.939 617.732C417.613 600.495 394.286 597.836 383.27 612.983L343.247 668.015C337.25 676.261 329.33 682.919 320.176 687.409L303.064 695.804C278.559 707.825 249.701 706.983 225.938 693.552L223.92 692.411C210.293 684.709 199.4 672.959 192.749 658.79C180.383 632.445 184.5 601.061 202.973 578.572L234.227 546.45C244.965 535.414 258.598 527.629 273.56 523.99L279.599 522.521C292.64 519.349 304.325 512.091 312.95 501.808L319.303 494.233C328.581 483.171 331.849 468.265 328.05 454.336C324.367 440.831 314.485 429.881 301.428 424.836L277.243 415.492C268.608 412.156 259.098 411.843 250.262 414.604C233.162 419.948 221.518 435.785 221.518 453.701V454.9C221.518 460.464 220.428 465.973 218.31 471.118Z" stroke="#FF1139"/>
</g>
<defs>
<linearGradient id="paint0_linear_96_227" x1="222.843" y1="125.537" x2="222.843" y2="750.779" gradientUnits="userSpaceOnUse">
<stop stop-color="#FF1139" stop-opacity="0.53"/>
<stop offset="0.495" stop-color="#FFBABD" stop-opacity="0.54"/>
<stop offset="1" stop-color="#FFF8E6"/>
</linearGradient>
<linearGradient id="paint1_linear_96_227" x1="222.843" y1="125.537" x2="222.843" y2="750.779" gradientUnits="userSpaceOnUse">
<stop stop-color="#FF1139" stop-opacity="0.53"/>
<stop offset="0.495" stop-color="#FFBABD" stop-opacity="0.54"/>
<stop offset="1" stop-color="#FFF8E6"/>
</linearGradient>
<clipPath id="clip0_96_227">
<rect width="390" height="782" fill="white"/>
</clipPath>
</defs>
</svg>
