<svg width="1920" height="935" viewBox="0 0 1920 935" fill="none" xmlns="http://www.w3.org/2000/svg">
<g clip-path="url(#clip0_52_811)">
<path d="M186.686 0H174.951C166.25 0 157.583 1.07868 149.148 3.21134L135.167 6.74628C110.763 12.9164 90.5147 29.898 80.1895 52.8549C68.006 79.9434 71.3364 111.492 88.9075 135.439L91.3187 138.725C94.7875 143.453 98.7129 147.828 103.038 151.787L177.548 219.991L265.911 297.488C273.848 304.449 278.4 314.494 278.4 325.052C278.4 345.3 261.985 361.715 241.737 361.715H224.508C212.307 361.715 200.467 357.575 190.925 349.972L148.237 315.96C141.992 310.984 134.939 307.118 127.385 304.53C90.5875 291.925 50.5922 311.868 38.5158 348.842L27.2672 383.282C19.5047 407.048 26.2333 433.159 44.515 450.214C54.8644 459.869 68.1122 465.836 82.201 467.19L161.095 474.768C172.045 475.82 182.889 477.774 193.518 480.609L266.108 499.972C310.634 515.016 343.582 552.911 352.291 599.096L358.244 630.661C371.877 690.923 425.425 733.711 487.211 733.711H513.858C531.128 733.711 548.107 729.262 563.158 720.793L604.233 697.68C639.864 677.631 647.426 629.568 619.673 599.546C615.573 595.111 610.86 591.285 605.676 588.186L535.698 546.345C511.948 532.145 494.118 509.853 485.484 483.563L480.066 467.065C468.091 430.603 480.438 390.554 510.864 367.164L526.39 355.228C545.068 340.871 570.416 338.764 591.207 349.842C605.459 357.435 616.05 370.449 620.59 385.946L643.779 465.103L646.822 476.377C663.224 537.133 715.463 581.433 778.082 587.689L790.882 588.968C816.124 591.49 841.488 585.525 862.961 572.018L882.299 559.854C915.452 538.999 930.057 498.187 917.663 461.033C912.759 446.332 903.929 433.252 892.127 423.208L851.463 388.602L802.854 339.05C798.054 334.157 794.18 328.434 791.42 322.16L790.567 320.221C780.584 297.528 787.323 270.953 806.914 255.759C816.39 248.411 828.04 244.422 840.031 244.422H843.969C865.454 244.422 885.575 254.953 897.821 272.607L930.64 319.919C936.055 327.726 942.096 335.081 948.703 341.911L963.94 357.665C983.314 377.695 1008.91 390.56 1036.55 394.154L1079.28 399.712C1108.79 403.55 1137.24 387.262 1148.88 359.871C1156.49 341.967 1155.85 321.626 1147.14 304.233L1126.5 263.03C1102.4 214.904 1056.46 181.451 1003.26 173.281L984.811 170.447C963.729 167.21 942.265 167.366 921.232 170.909L846.324 183.527C835.347 185.376 824.234 186.305 813.102 186.305H740.623C726.602 186.305 712.645 184.428 699.122 180.723L664.476 171.231C651.11 167.569 639.469 159.298 631.613 147.882L623.538 136.149C617.274 127.047 616.053 115.39 620.294 105.188C625.344 93.0413 637.207 85.1263 650.362 85.1263H652.39C665.704 85.1263 677.905 92.5546 684.018 104.382L688.346 112.755C692.683 121.146 699.261 128.17 707.35 133.047L711.907 135.794C722.8 142.363 735.28 145.834 748 145.834H750.247C765.47 145.834 780.36 141.378 793.08 133.017L806.415 124.252C821.537 114.312 832.664 99.3517 837.834 82.0092L842.137 67.574C847.848 48.4138 842.194 27.6724 827.55 14.061C817.826 5.02337 805.043 0 791.768 0H593.253C569.321 0 545.583 4.29542 523.168 12.682L488.989 25.4699C470.125 32.5282 453.725 44.9304 441.796 61.1602L432.123 74.3212C416.391 95.7253 413.146 123.851 423.591 148.275L424.538 150.489C428.769 160.384 435.375 169.082 443.771 175.813C473.499 199.647 476.655 243.741 450.625 271.567L446.186 276.313C436.285 286.897 423.399 294.22 409.24 297.31L390.518 301.397C369.727 305.934 347.994 302.688 329.437 292.273C309.091 280.854 294.189 261.735 288.083 239.217L283.032 220.59C279.957 209.251 278.4 197.554 278.4 185.805V145.834V91.7135C278.4 87.3277 278.085 82.9475 277.458 78.6068C270.943 33.4858 232.275 0 186.686 0Z" stroke="#FF1139"/>
<path d="M1723.91 89.2319L1752.63 125.425C1767.42 144.067 1792.21 151.595 1814.87 144.322L1820.96 142.369C1847.76 133.765 1876.46 148.607 1884.93 175.459L1887.53 183.73C1894.77 206.675 1881.51 231.04 1858.31 237.418C1835.77 243.614 1822.49 266.864 1828.59 289.426L1837.69 323.046C1841.52 337.227 1841.25 352.206 1836.89 366.235L1828.37 393.654C1816.18 432.857 1785.3 463.432 1745.97 475.216L1740.16 476.959C1709.96 486.009 1677.33 481.653 1650.56 464.999L1648.84 463.929C1617.66 444.536 1598.71 410.424 1598.71 373.711C1598.71 346.901 1608.85 321.082 1627.08 301.432L1653.96 272.476C1662.91 262.826 1674.15 255.588 1686.65 251.429L1720.32 240.216C1744.07 232.309 1756.51 206.268 1747.73 182.827C1739.63 161.186 1716.22 149.448 1694.03 155.902L1675.42 161.315C1650.63 168.528 1623.91 160.391 1607.34 140.578L1589.55 119.299C1584.41 113.153 1580.84 105.851 1579.15 98.0211C1574.14 74.8751 1586.24 51.4263 1608 42.0888L1620.59 36.6856C1648.27 24.8083 1680.49 33.1463 1698.93 56.9633L1723.91 89.2319Z" stroke="#FF1139"/>
</g>
<defs>
<clipPath id="clip0_52_811">
<rect width="1920" height="935" fill="white"/>
</clipPath>
</defs>
</svg>
