<svg width="62" height="58" viewBox="0 0 62 58" fill="none" xmlns="http://www.w3.org/2000/svg">
<g clip-path="url(#clip0_141_117)">
<path d="M22.2772 52.7365C21.9692 52.7365 21.8292 52.5545 21.8572 52.1905C21.8852 51.7985 21.8712 51.2945 21.8152 50.6785C21.5632 47.4865 21.2552 44.2525 20.8912 40.9765C20.5552 37.7005 20.0932 34.4945 19.5052 31.3585C19.2532 30.0145 18.9032 29.0065 18.4552 28.3345C18.0352 27.6345 17.5592 27.1725 17.0272 26.9485C16.5232 26.6965 16.0192 26.5705 15.5152 26.5705C15.0392 26.5705 14.6332 26.5705 14.2972 26.5705C14.1292 26.5705 14.0452 26.5145 14.0452 26.4025C14.0452 26.2905 14.1152 26.1785 14.2552 26.0665C14.4232 25.9265 14.5912 25.8565 14.7592 25.8565C15.7112 25.8845 16.4532 25.9125 16.9852 25.9405C17.5452 25.9405 18.0072 25.9405 18.3712 25.9405C18.7352 25.9405 19.1272 25.9545 19.5472 25.9825C20.1072 26.0105 20.6672 26.0385 21.2272 26.0665C21.7872 26.0665 22.3472 26.0665 22.9072 26.0665C23.8032 26.0665 24.6992 26.0525 25.5952 26.0245C26.4912 25.9685 27.3592 25.9265 28.1992 25.8985C28.3392 25.8985 28.4092 25.9685 28.4092 26.1085C28.4092 26.2205 28.3672 26.3325 28.2832 26.4445C28.1992 26.5285 28.0872 26.5705 27.9472 26.5705C27.6672 26.5705 27.2752 26.5705 26.7712 26.5705C26.2952 26.5705 25.8052 26.6125 25.3012 26.6965C24.7972 26.7805 24.3632 26.9485 23.9992 27.2005C23.6632 27.4525 23.4952 27.8165 23.4952 28.2925C23.4952 28.9085 23.5512 29.8045 23.6632 30.9805C23.7752 32.1565 23.9152 33.4865 24.0832 34.9705C24.2512 36.4265 24.4332 37.9245 24.6292 39.4645C24.8252 40.9765 25.0212 42.4045 25.2172 43.7485C25.4132 45.0925 25.5812 46.2125 25.7212 47.1085C25.8052 47.6405 25.9592 47.9065 26.1832 47.9065C26.3512 47.9065 26.6032 47.6545 26.9392 47.1505C27.7232 45.8905 28.5212 44.5045 29.3332 42.9925C30.1452 41.4525 30.9572 39.8705 31.7692 38.2465C32.6092 36.6225 33.4352 35.0545 34.2472 33.5425C34.5552 33.0105 34.7512 32.5905 34.8352 32.2825C34.9472 31.9465 35.0032 31.6385 35.0032 31.3585C35.0032 31.1905 34.9892 31.0225 34.9612 30.8545C34.9332 30.6865 34.8912 30.5045 34.8352 30.3085C34.6392 29.1045 34.2752 28.1945 33.7432 27.5785C33.2392 26.9345 32.2032 26.6125 30.6352 26.6125H30.5512C30.3832 26.6125 30.2992 26.5145 30.2992 26.3185C30.2992 26.2065 30.3272 26.1085 30.3832 26.0245C30.4672 25.9125 30.5652 25.8705 30.6772 25.8985C31.6572 25.9265 32.3712 25.9545 32.8192 25.9825C33.2672 26.0105 33.6312 26.0385 33.9112 26.0665C34.1912 26.0665 34.5412 26.0805 34.9612 26.1085C35.4372 26.1365 35.9412 26.1505 36.4732 26.1505C37.0052 26.1505 37.5652 26.1505 38.1532 26.1505C39.3012 26.1505 40.4772 26.1365 41.6812 26.1085C42.9132 26.0805 43.9772 26.0385 44.8732 25.9825C44.9572 25.9825 44.9992 26.0245 44.9992 26.1085C44.9992 26.1925 44.9572 26.2905 44.8732 26.4025C44.7892 26.5145 44.6772 26.5845 44.5372 26.6125C44.2012 26.6685 43.7252 26.7525 43.1092 26.8645C42.5212 26.9485 41.9192 27.0885 41.3032 27.2845C40.6872 27.4805 40.1692 27.7325 39.7492 28.0405C39.3292 28.3485 39.1192 28.7405 39.1192 29.2165C39.1192 29.8325 39.1752 30.7005 39.2872 31.8205C39.3992 32.9405 39.5252 34.1865 39.6652 35.5585C39.8332 36.9305 40.0152 38.3305 40.2112 39.7585C40.4072 41.1865 40.6032 42.5445 40.7992 43.8325C40.9952 45.1205 41.1632 46.2125 41.3032 47.1085C41.3872 47.6405 41.5412 47.9065 41.7652 47.9065C41.9612 47.9065 42.2272 47.6545 42.5632 47.1505C43.4592 45.6945 44.3832 44.0565 45.3352 42.2365C46.2872 40.4165 47.2392 38.5685 48.1912 36.6925C49.1712 34.7885 50.1232 33.0105 51.0472 31.3585C51.4112 30.7145 51.6632 30.1685 51.8032 29.7205C51.9432 29.2445 52.0132 28.8385 52.0132 28.5025C52.0132 27.7185 51.7052 27.2145 51.0892 26.9905C50.5012 26.7665 49.8432 26.6545 49.1152 26.6545C48.8072 26.6545 48.4992 26.6685 48.1912 26.6965C47.8832 26.7245 47.6032 26.7385 47.3512 26.7385H47.2252C47.1412 26.7385 47.0992 26.7105 47.0992 26.6545C47.0992 26.5425 47.1972 26.4025 47.3932 26.2345C47.5892 26.0665 47.7572 26.0105 47.8972 26.0665C49.2132 25.9825 50.3892 25.9405 51.4252 25.9405C52.0692 25.9405 52.6292 25.9545 53.1052 25.9825C53.6092 25.9825 54.0292 25.9825 54.3652 25.9825C55.1492 26.0105 56.1292 25.9965 57.3052 25.9405C58.5092 25.8845 59.6852 25.8565 60.8332 25.8565C60.9172 25.8565 60.9592 25.8845 60.9592 25.9405C60.9592 26.0525 60.8892 26.2065 60.7492 26.4025C60.6092 26.5705 60.4832 26.6405 60.3712 26.6125C60.1752 26.6125 59.7972 26.6265 59.2372 26.6545C58.6772 26.6545 58.0192 26.8505 57.2632 27.2425C56.5352 27.6065 55.7652 28.3485 54.9532 29.4685C54.5052 30.0845 53.9452 30.9105 53.2732 31.9465C52.6292 32.9545 51.9152 34.1025 51.1312 35.3905C50.3472 36.6505 49.5632 37.9385 48.7792 39.2545C48.0232 40.5705 47.2952 41.8445 46.5952 43.0765C45.8952 44.2805 45.2792 45.3445 44.7472 46.2685C44.2432 47.1925 43.8792 47.8925 43.6552 48.3685C43.4872 48.7045 43.4032 48.9705 43.4032 49.1665C43.4312 49.3345 43.4312 49.4885 43.4032 49.6285C43.3752 49.7405 43.2212 49.8805 42.9412 50.0485C42.6892 50.1885 42.2272 50.3845 41.5552 50.6365C41.1072 50.8045 40.6592 51.0565 40.2112 51.3925C39.7912 51.7285 39.3852 52.0365 38.9932 52.3165C38.6012 52.5685 38.2372 52.7085 37.9012 52.7365C37.7052 52.7365 37.5792 52.6665 37.5232 52.5265C37.4952 52.3865 37.4812 52.2045 37.4812 51.9805C37.4812 51.8125 37.4812 51.6165 37.4812 51.3925C37.4812 51.1685 37.4672 50.9305 37.4392 50.6785C37.2432 48.1025 37.0052 45.5125 36.7252 42.9085C36.4732 40.2765 36.1512 37.6865 35.7592 35.1385C35.0032 36.3145 34.2192 37.5605 33.4072 38.8765C32.6232 40.1925 31.8672 41.4805 31.1392 42.7405C30.4112 44.0005 29.7672 45.1345 29.2072 46.1425C28.6752 47.1225 28.2832 47.8645 28.0312 48.3685C27.8632 48.7045 27.7792 48.9705 27.7792 49.1665C27.8072 49.3345 27.8072 49.4885 27.7792 49.6285C27.7512 49.7405 27.6112 49.8805 27.3592 50.0485C27.1072 50.1885 26.6452 50.3845 25.9732 50.6365C25.5252 50.8045 25.0772 51.0565 24.6292 51.3925C24.1812 51.7285 23.7612 52.0365 23.3692 52.3165C22.9772 52.5685 22.6132 52.7085 22.2772 52.7365Z" fill="#FFBABD"/>
<path d="M10.2438 45.6663C9.32718 45.6663 8.44718 45.5563 7.60385 45.3363C6.79718 45.0796 6.15552 44.6396 5.67885 44.0163C5.42218 43.6496 5.03718 43.1363 4.52385 42.4763C4.04718 41.7796 3.80885 41.1196 3.80885 40.4963C3.80885 40.0563 3.91885 39.7079 4.13885 39.4513C4.65218 38.7913 5.05552 38.1863 5.34885 37.6363C5.67885 37.0863 6.00885 36.4263 6.33885 35.6563C6.66885 34.8496 7.07218 33.7863 7.54885 32.4663C7.73218 32.0629 7.87885 31.6229 7.98885 31.1463C8.09885 30.6696 8.31885 30.5229 8.64885 30.7063C8.79552 30.7796 8.79552 31.1463 8.64885 31.8063C8.50218 32.4296 8.39218 32.9979 8.31885 33.5113C8.28218 33.6946 8.26385 33.8779 8.26385 34.0613C8.26385 34.2446 8.26385 34.4279 8.26385 34.6113C8.26385 36.4446 8.63052 37.9663 9.36385 39.1763C10.1338 40.3863 11.1055 41.2846 12.2788 41.8713C13.4889 42.4213 14.7722 42.6963 16.1289 42.6963C17.6322 42.6963 19.0988 42.3663 20.5288 41.7063C21.9955 41.0096 23.2239 40.0013 24.2138 38.6813C25.2038 37.3613 25.7722 35.7663 25.9189 33.8963C25.9922 32.6863 25.7539 31.7329 25.2038 31.0363C24.6539 30.3396 23.9022 29.8263 22.9488 29.4963C21.9955 29.1663 20.9322 28.9463 19.7588 28.8363C18.6222 28.7263 17.4855 28.6346 16.3488 28.5613C13.6355 28.3779 11.5822 27.6263 10.1888 26.3063C8.79552 24.9496 8.15385 23.4829 8.26385 21.9063C8.37385 20.1463 9.05218 18.5329 10.2988 17.0663C11.5455 15.5996 13.1038 14.3163 14.9739 13.2163C16.8439 12.1163 18.8238 11.2729 20.9138 10.6863C23.0038 10.0996 24.9655 9.80625 26.7989 9.80625C28.2288 9.80625 29.4938 10.0079 30.5939 10.4113C31.6938 10.8146 32.5005 11.4379 33.0138 12.2813C33.5272 13.1612 33.7838 13.8946 33.7838 14.4813C33.7838 14.8479 33.6922 15.2146 33.5088 15.5813C33.3255 15.9113 33.0505 16.2963 32.6839 16.7363C32.2439 17.3229 31.8589 17.8179 31.5289 18.2213C31.2355 18.6246 30.9239 19.1196 30.5939 19.7063C30.3005 20.2563 29.9155 21.0263 29.4388 22.0163C29.2555 22.4196 29.0538 22.6213 28.8339 22.6213C28.6872 22.6213 28.6139 22.4929 28.6139 22.2363C28.6139 22.0163 28.6872 21.7779 28.8339 21.5213C29.1639 20.4579 29.3289 19.5229 29.3289 18.7163C29.3289 17.3596 28.9805 16.2229 28.2839 15.3063C27.6239 14.3529 26.7622 13.6379 25.6988 13.1613C24.6355 12.6479 23.4989 12.3913 22.2888 12.3913C21.0422 12.3913 19.8322 12.6663 18.6589 13.2163C17.5222 13.7296 16.5505 14.5546 15.7439 15.6913C14.9739 16.7913 14.5155 18.2029 14.3688 19.9263C14.2955 20.9529 14.5155 21.7779 15.0288 22.4013C15.5422 23.0246 16.2205 23.5013 17.0638 23.8313C17.9438 24.1613 18.8422 24.3996 19.7588 24.5463C20.7122 24.6929 21.5922 24.7846 22.3988 24.8213C23.2055 24.8213 23.7922 24.8396 24.1589 24.8763C27.1289 24.9863 29.1455 25.5363 30.2088 26.5263C31.3089 27.4796 31.8222 28.6346 31.7488 29.9913C31.6022 31.8979 30.9239 33.7863 29.7138 35.6563C28.5405 37.4896 26.9638 39.1763 24.9839 40.7163C23.0039 42.2196 20.7488 43.4296 18.2188 44.3463C15.6888 45.2263 13.0305 45.6663 10.2438 45.6663Z" fill="#FF1139"/>
</g>
<defs>
<clipPath id="clip0_141_117">
<rect width="62" height="58" fill="white"/>
</clipPath>
</defs>
</svg>
